<?xml version="1.0" encoding="utf-8"?>
<svg width="723px" height="306.6px" viewBox="0 0 723 306.6" version="1.1" xmlns:xlink="http://www.w3.org/1999/xlink" xmlns="http://www.w3.org/2000/svg">
  <defs>
    <linearGradient gradientUnits="userSpaceOnUse" x1="58.994934" y1="51.887115" x2="70" y2="68" id="gradient_1">
      <stop offset="0%" stop-color="#ABC0BE" />
      <stop offset="100%" stop-color="#FFFFFF" />
    </linearGradient>
    <path d="M173.207 51.1414L250.991 128.925Q251.338 129.272 251.667 129.635Q251.997 129.999 252.309 130.379Q252.62 130.758 252.913 131.153Q253.205 131.547 253.478 131.955Q253.75 132.363 254.003 132.784Q254.255 133.206 254.487 133.639Q254.718 134.072 254.928 134.515Q255.138 134.959 255.326 135.413Q255.514 135.866 255.679 136.329Q255.844 136.791 255.987 137.261Q256.129 137.73 256.249 138.207Q256.368 138.683 256.464 139.164Q256.56 139.646 256.632 140.132Q256.704 140.617 256.752 141.106Q256.8 141.594 256.824 142.085Q256.848 142.575 256.848 143.066Q256.848 143.557 256.824 144.047Q256.8 144.538 256.752 145.026Q256.704 145.515 256.632 146Q256.56 146.486 256.464 146.968Q256.368 147.449 256.249 147.925Q256.129 148.402 255.987 148.871Q255.844 149.341 255.679 149.803Q255.514 150.266 255.326 150.719Q255.138 151.173 254.928 151.617Q254.718 152.06 254.487 152.493Q254.255 152.926 254.003 153.348Q253.75 153.769 253.478 154.177Q253.205 154.585 252.912 154.979Q252.62 155.374 252.309 155.753Q251.997 156.133 251.667 156.496Q251.338 156.86 250.991 157.207L173.207 234.991Q172.86 235.338 172.497 235.667Q172.133 235.997 171.753 236.309Q171.374 236.62 170.979 236.912Q170.585 237.205 170.177 237.478Q169.769 237.75 169.348 238.003Q168.926 238.255 168.493 238.487Q168.06 238.718 167.617 238.928Q167.173 239.138 166.719 239.326Q166.266 239.514 165.803 239.679Q165.341 239.844 164.871 239.987Q164.402 240.129 163.925 240.249Q163.449 240.368 162.968 240.464Q162.486 240.56 162 240.632Q161.515 240.704 161.026 240.752Q160.538 240.8 160.047 240.824Q159.557 240.848 159.066 240.848Q158.575 240.848 158.085 240.824Q157.594 240.8 157.106 240.752Q156.617 240.704 156.132 240.632Q155.646 240.56 155.164 240.464Q154.683 240.368 154.207 240.249Q153.73 240.129 153.261 239.987Q152.791 239.844 152.329 239.679Q151.866 239.514 151.413 239.326Q150.959 239.138 150.515 238.928Q150.072 238.718 149.639 238.487Q149.206 238.255 148.784 238.003Q148.363 237.75 147.955 237.478Q147.547 237.205 147.153 236.912Q146.758 236.62 146.379 236.309Q145.999 235.997 145.635 235.667Q145.272 235.338 144.925 234.991L67.1414 157.207Q66.7943 156.86 66.4646 156.497Q66.1349 156.133 65.8234 155.753Q65.512 155.374 65.2195 154.979Q64.927 154.585 64.6543 154.177Q64.3815 153.769 64.1291 153.348Q63.8767 152.926 63.6453 152.493Q63.4139 152.06 63.204 151.617Q62.9941 151.173 62.8062 150.719Q62.6183 150.266 62.4529 149.803Q62.2875 149.341 62.145 148.871Q62.0025 148.402 61.8832 147.925Q61.7639 147.449 61.6681 146.968Q61.5723 146.486 61.5003 146Q61.4283 145.515 61.3801 145.026Q61.332 144.538 61.3079 144.047Q61.2838 143.557 61.2838 143.066Q61.2838 142.575 61.3079 142.085Q61.332 141.594 61.3801 141.106Q61.4283 140.617 61.5003 140.132Q61.5723 139.646 61.6681 139.164Q61.7639 138.683 61.8832 138.207Q62.0025 137.73 62.145 137.261Q62.2875 136.791 62.4529 136.329Q62.6183 135.866 62.8062 135.413Q62.9941 134.959 63.204 134.515Q63.4139 134.072 63.6453 133.639Q63.8767 133.206 64.1291 132.784Q64.3815 132.363 64.6543 131.955Q64.927 131.547 65.2195 131.153Q65.512 130.758 65.8234 130.379Q66.1349 129.999 66.4646 129.635Q66.7943 129.272 67.1414 128.925L144.925 51.1414Q145.272 50.7942 145.635 50.4645Q145.999 50.1348 146.379 49.8234Q146.758 49.5119 147.153 49.2195Q147.547 48.927 147.955 48.6543Q148.363 48.3815 148.784 48.1291Q149.206 47.8767 149.639 47.6453Q150.072 47.4138 150.515 47.2039Q150.959 46.994 151.413 46.8062Q151.866 46.6183 152.329 46.4529Q152.791 46.2875 153.261 46.145Q153.73 46.0025 154.207 45.8832Q154.683 45.7639 155.164 45.6681Q155.646 45.5723 156.132 45.5003Q156.617 45.4282 157.106 45.3801Q157.594 45.332 158.085 45.3079Q158.575 45.2838 159.066 45.2838Q159.557 45.2838 160.047 45.3079Q160.538 45.332 161.026 45.3801Q161.515 45.4282 162 45.5003Q162.486 45.5723 162.968 45.6681Q163.449 45.7639 163.925 45.8832Q164.402 46.0025 164.871 46.145Q165.341 46.2875 165.803 46.4529Q166.266 46.6183 166.719 46.8062Q167.173 46.994 167.617 47.2039Q168.06 47.4138 168.493 47.6453Q168.926 47.8767 169.348 48.1291Q169.769 48.3815 170.177 48.6543Q170.585 48.927 170.979 49.2195Q171.374 49.5119 171.753 49.8234Q172.133 50.1348 172.497 50.4645Q172.86 50.7942 173.207 51.1414Z" id="path_1" />
    <path d="M256.141 51.1414L333.925 128.925Q334.272 129.272 334.601 129.636Q334.931 129.999 335.243 130.379Q335.554 130.758 335.846 131.153Q336.139 131.547 336.412 131.955Q336.684 132.363 336.937 132.784Q337.189 133.206 337.421 133.639Q337.652 134.072 337.862 134.515Q338.072 134.959 338.26 135.413Q338.448 135.866 338.613 136.329Q338.778 136.791 338.921 137.261Q339.063 137.73 339.183 138.207Q339.302 138.683 339.398 139.164Q339.494 139.646 339.566 140.132Q339.638 140.617 339.686 141.106Q339.734 141.594 339.758 142.085Q339.782 142.575 339.782 143.066Q339.782 143.557 339.758 144.047Q339.734 144.538 339.686 145.026Q339.638 145.515 339.566 146Q339.494 146.486 339.398 146.968Q339.302 147.449 339.183 147.925Q339.063 148.402 338.921 148.871Q338.778 149.341 338.613 149.803Q338.448 150.266 338.26 150.719Q338.072 151.173 337.862 151.617Q337.652 152.061 337.421 152.493Q337.189 152.926 336.937 153.348Q336.684 153.769 336.412 154.177Q336.139 154.585 335.846 154.979Q335.554 155.374 335.243 155.753Q334.931 156.133 334.601 156.497Q334.272 156.86 333.925 157.207L256.141 234.991Q255.794 235.338 255.43 235.667Q255.067 235.997 254.687 236.309Q254.308 236.62 253.913 236.913Q253.519 237.205 253.111 237.478Q252.703 237.75 252.281 238.003Q251.86 238.255 251.427 238.487Q250.994 238.718 250.551 238.928Q250.107 239.138 249.653 239.326Q249.2 239.514 248.737 239.679Q248.275 239.844 247.805 239.987Q247.336 240.13 246.859 240.249Q246.383 240.368 245.902 240.464Q245.42 240.56 244.934 240.632Q244.449 240.704 243.96 240.752Q243.472 240.8 242.981 240.824Q242.491 240.848 242 240.848Q241.509 240.848 241.019 240.824Q240.528 240.8 240.04 240.752Q239.551 240.704 239.065 240.632Q238.58 240.56 238.098 240.464Q237.617 240.368 237.141 240.249Q236.664 240.13 236.195 239.987Q235.725 239.844 235.262 239.679Q234.8 239.514 234.347 239.326Q233.893 239.138 233.449 238.928Q233.005 238.718 232.572 238.487Q232.139 238.255 231.718 238.003Q231.297 237.75 230.889 237.478Q230.481 237.205 230.087 236.913Q229.692 236.62 229.313 236.309Q228.933 235.997 228.569 235.667Q228.206 235.338 227.859 234.991L150.075 157.207Q149.728 156.86 149.399 156.497Q149.069 156.133 148.757 155.753Q148.446 155.374 148.153 154.979Q147.861 154.585 147.588 154.177Q147.315 153.769 147.063 153.348Q146.811 152.926 146.579 152.493Q146.348 152.061 146.138 151.617Q145.928 151.173 145.74 150.719Q145.552 150.266 145.387 149.803Q145.221 149.341 145.079 148.871Q144.936 148.402 144.817 147.925Q144.698 147.449 144.602 146.968Q144.506 146.486 144.434 146Q144.362 145.515 144.314 145.026Q144.266 144.538 144.242 144.047Q144.218 143.557 144.218 143.066Q144.218 142.575 144.242 142.085Q144.266 141.594 144.314 141.106Q144.362 140.617 144.434 140.132Q144.506 139.646 144.602 139.164Q144.698 138.683 144.817 138.207Q144.936 137.73 145.079 137.261Q145.221 136.791 145.387 136.329Q145.552 135.866 145.74 135.413Q145.928 134.959 146.138 134.515Q146.348 134.072 146.579 133.639Q146.811 133.206 147.063 132.784Q147.315 132.363 147.588 131.955Q147.861 131.547 148.153 131.153Q148.446 130.758 148.757 130.379Q149.069 129.999 149.399 129.636Q149.728 129.272 150.075 128.925L179.324 99.6763L196.835 82.1654L227.859 51.1414Q228.206 50.7943 228.569 50.4646Q228.933 50.1349 229.313 49.8234Q229.692 49.512 230.087 49.2195Q230.481 48.927 230.889 48.6543Q231.297 48.3815 231.718 48.1291Q232.139 47.8767 232.572 47.6453Q233.005 47.4139 233.449 47.204Q233.893 46.9941 234.347 46.8062Q234.8 46.6183 235.262 46.4529Q235.725 46.2875 236.195 46.145Q236.664 46.0025 237.141 45.8832Q237.617 45.7639 238.098 45.6681Q238.58 45.5724 239.065 45.5003Q239.551 45.4283 240.04 45.3802Q240.528 45.332 241.019 45.3079Q241.509 45.2839 242 45.2839Q242.491 45.2839 242.981 45.3079Q243.472 45.332 243.96 45.3802Q244.449 45.4283 244.934 45.5003Q245.42 45.5724 245.902 45.6681Q246.383 45.7639 246.859 45.8832Q247.336 46.0025 247.805 46.145Q248.275 46.2875 248.737 46.4529Q249.2 46.6183 249.653 46.8062Q250.107 46.9941 250.551 47.204Q250.994 47.4139 251.427 47.6453Q251.86 47.8767 252.281 48.1291Q252.703 48.3815 253.111 48.6543Q253.519 48.927 253.913 49.2195Q254.308 49.512 254.687 49.8234Q255.067 50.1349 255.43 50.4646Q255.794 50.7943 256.141 51.1414Z" id="path_2" />
    <clipPath id="clip_1">
      <use xlink:href="#path_1" />
    </clipPath>
    <clipPath id="clip_2">
      <use xlink:href="#path_2" />
    </clipPath>
  </defs>
  <g id="Groupes">
    <g id="Rectangle-2">
      <g clip-path="url(#clip_1)">
        <use xlink:href="#path_1" fill="none" stroke="#4B879A" stroke-width="60" />
      </g>
    </g>
    <g id="Rectangle-3">
      <g clip-path="url(#clip_2)">
        <use xlink:href="#path_2" fill="none" stroke="#000000" stroke-width="60" />
      </g>
    </g>
    <path d="M200.066 208.066L222.066 186.066L200.066 164.066L177.066 185.066L200.066 208.066Z" id="Vecteur" fill="#4B879A" fill-rule="evenodd" stroke="none" />
    <path d="M178.066 187.066L201.066 164.066L156.066 119.066L131.066 147.066L178.066 187.066Z" id="Vecteur-2" fill="url(#gradient_1)" fill-rule="evenodd" stroke="none" />
    <path d="M178.646 186.846C180.603 186.846 182.141 181.893 183.525 181.201C188.868 178.528 191.631 171.264 196.729 168.715C197.846 168.156 199.57 164.649 200.603 164.649" id="Vecteur-3" fill="none" fill-rule="evenodd" stroke="#ABC0BE" stroke-width="1" />
    <path d="M0 0L723 0L723 306.6L0 306.6L0 0Z" id="Rectangle" fill="none" fill-rule="evenodd" stroke="none" />
    <path d="M181.66 184.167C181.66 182.872 184.393 180.141 185.247 179.287" id="Vecteur-4" fill="none" fill-rule="evenodd" stroke="#ABC0BE" stroke-width="1" />
    <path d="M211.166 145.066C211.166 128.497 224.597 115.066 241.166 115.066C257.735 115.066 271.166 128.497 271.166 145.066C271.166 161.635 257.735 175.066 241.166 175.066C224.597 175.066 211.166 161.635 211.166 145.066Z" id="Ovale" fill="#4B879A" fill-rule="evenodd" stroke="none" />
    <path d="M129.066 143.066C129.066 126.497 142.497 113.066 159.066 113.066C175.635 113.066 189.066 126.497 189.066 143.066C189.066 159.635 175.635 173.066 159.066 173.066C142.497 173.066 129.066 159.635 129.066 143.066Z" id="Ovale-2" fill="#000000" fill-rule="evenodd" stroke="none" />
  </g>
</svg>