<?xml version="1.0" encoding="utf-8"?>
<svg width="295.06598px" height="265.3296px" viewBox="0 0 295.06598 265.3296" version="1.1" xmlns:xlink="http://www.w3.org/1999/xlink" xmlns="http://www.w3.org/2000/svg">
  <defs>
    <linearGradient gradientUnits="userSpaceOnUse" x1="60.550903" y1="54.894684" x2="70" y2="68" id="gradient_1">
      <stop offset="0%" stop-color="#242726" />
      <stop offset="100%" stop-color="#FFFFFF" />
    </linearGradient>
    <linearGradient gradientUnits="userSpaceOnUse" x1="34" y1="34" x2="68" y2="68" id="gradient_2">
      <stop offset="0%" stop-color="#162228" />
      <stop offset="100%" stop-color="#F8E3C1" />
    </linearGradient>
    <linearGradient gradientUnits="userSpaceOnUse" x1="-2.2834742" y1="-17.826212" x2="85.01887" y2="70.8011" id="gradient_3">
      <stop offset="0%" stop-color="#4B879A" />
      <stop offset="100%" stop-color="#030303" />
    </linearGradient>
    <path d="M120.207 14.1414L197.991 91.9246Q198.338 92.2717 198.667 92.6355Q198.997 92.9993 199.309 93.3788Q199.62 93.7583 199.912 94.1526Q200.205 94.547 200.478 94.9552Q200.75 95.3634 201.003 95.7845Q201.255 96.2056 201.487 96.6385Q201.718 97.0715 201.928 97.5153Q202.138 97.9592 202.326 98.4127Q202.514 98.8663 202.679 99.3286Q202.844 99.7908 202.987 100.261Q203.13 100.73 203.249 101.207Q203.368 101.683 203.464 102.164Q203.56 102.646 203.632 103.132Q203.704 103.617 203.752 104.106Q203.8 104.594 203.824 105.085Q203.848 105.575 203.848 106.066Q203.848 106.557 203.824 107.047Q203.8 107.538 203.752 108.026Q203.704 108.515 203.632 109Q203.56 109.486 203.464 109.968Q203.368 110.449 203.249 110.925Q203.13 111.402 202.987 111.871Q202.844 112.341 202.679 112.803Q202.514 113.266 202.326 113.719Q202.138 114.173 201.928 114.617Q201.718 115.06 201.487 115.493Q201.255 115.926 201.003 116.348Q200.75 116.769 200.478 117.177Q200.205 117.585 199.912 117.979Q199.62 118.374 199.309 118.753Q198.997 119.133 198.667 119.497Q198.338 119.86 197.991 120.207L120.207 197.991Q119.86 198.338 119.497 198.667Q119.133 198.997 118.753 199.309Q118.374 199.62 117.979 199.912Q117.585 200.205 117.177 200.478Q116.769 200.75 116.348 201.003Q115.926 201.255 115.493 201.487Q115.06 201.718 114.617 201.928Q114.173 202.138 113.719 202.326Q113.266 202.514 112.803 202.679Q112.341 202.844 111.871 202.987Q111.402 203.13 110.925 203.249Q110.449 203.368 109.968 203.464Q109.486 203.56 109 203.632Q108.515 203.704 108.026 203.752Q107.538 203.8 107.047 203.824Q106.557 203.848 106.066 203.848Q105.575 203.848 105.085 203.824Q104.594 203.8 104.106 203.752Q103.617 203.704 103.132 203.632Q102.646 203.56 102.164 203.464Q101.683 203.368 101.207 203.249Q100.73 203.13 100.261 202.987Q99.7908 202.844 99.3285 202.679Q98.8663 202.514 98.4127 202.326Q97.9591 202.138 97.5153 201.928Q97.0715 201.718 96.6385 201.487Q96.2056 201.255 95.7845 201.003Q95.3634 200.75 94.9552 200.478Q94.5469 200.205 94.1526 199.912Q93.7583 199.62 93.3788 199.309Q92.9993 198.997 92.6355 198.667Q92.2717 198.338 91.9246 197.991L14.1414 120.207Q13.7943 119.86 13.4646 119.497Q13.1349 119.133 12.8234 118.753Q12.512 118.374 12.2195 117.979Q11.927 117.585 11.6543 117.177Q11.3815 116.769 11.1291 116.348Q10.8767 115.926 10.6453 115.493Q10.4139 115.061 10.204 114.617Q9.99406 114.173 9.80618 113.719Q9.6183 113.266 9.45291 112.803Q9.28751 112.341 9.145 111.871Q9.00248 111.402 8.88319 110.925Q8.7639 110.449 8.66812 109.968Q8.57234 109.486 8.50031 109Q8.42827 108.515 8.38015 108.026Q8.33203 107.538 8.30794 107.047Q8.28385 106.557 8.28385 106.066Q8.28385 105.575 8.30794 105.085Q8.33203 104.594 8.38015 104.106Q8.42827 103.617 8.50031 103.132Q8.57234 102.646 8.66812 102.164Q8.7639 101.683 8.88319 101.207Q9.00248 100.73 9.145 100.261Q9.28751 99.7908 9.45291 99.3286Q9.6183 98.8663 9.80618 98.4127Q9.99406 97.9592 10.204 97.5153Q10.4139 97.0715 10.6453 96.6386Q10.8767 96.2056 11.1291 95.7845Q11.3815 95.3634 11.6543 94.9552Q11.927 94.547 12.2195 94.1526Q12.512 93.7583 12.8234 93.3788Q13.1349 92.9993 13.4646 92.6355Q13.7943 92.2717 14.1414 91.9246L91.9246 14.1414Q92.2717 13.7943 92.6355 13.4646Q92.9993 13.1349 93.3788 12.8234Q93.7583 12.512 94.1526 12.2195Q94.5469 11.9271 94.9552 11.6543Q95.3634 11.3815 95.7845 11.1291Q96.2056 10.8767 96.6385 10.6453Q97.0715 10.4139 97.5153 10.204Q97.9591 9.99407 98.4127 9.80619Q98.8663 9.61831 99.3285 9.45292Q99.7908 9.28752 100.261 9.14501Q100.73 9.00249 101.207 8.8832Q101.683 8.76391 102.164 8.66813Q102.646 8.57235 103.132 8.50031Q103.617 8.42828 104.106 8.38016Q104.594 8.33204 105.085 8.30795Q105.575 8.28386 106.066 8.28386Q106.557 8.28386 107.047 8.30795Q107.538 8.33204 108.026 8.38016Q108.515 8.42828 109 8.50032Q109.486 8.57235 109.968 8.66813Q110.449 8.76391 110.925 8.8832Q111.402 9.00249 111.871 9.14501Q112.341 9.28752 112.803 9.45292Q113.266 9.61831 113.719 9.80619Q114.173 9.99407 114.617 10.204Q115.06 10.4139 115.493 10.6453Q115.926 10.8767 116.348 11.1291Q116.769 11.3815 117.177 11.6543Q117.585 11.9271 117.979 12.2195Q118.374 12.512 118.753 12.8234Q119.133 13.1349 119.497 13.4646Q119.86 13.7943 120.207 14.1414Z" id="path_1" />
    <path d="M203.141 14.3075L280.925 92.0906Q281.272 92.4378 281.601 92.8015Q281.931 93.1653 282.243 93.5448Q282.554 93.9243 282.846 94.3187Q283.139 94.713 283.412 95.1212Q283.684 95.5294 283.937 95.9505Q284.189 96.3716 284.421 96.8046Q284.652 97.2376 284.862 97.6814Q285.072 98.1252 285.26 98.5788Q285.448 99.0323 285.613 99.4946Q285.778 99.9568 285.921 100.427Q286.063 100.896 286.183 101.373Q286.302 101.849 286.398 102.33Q286.494 102.812 286.566 103.298Q286.638 103.783 286.686 104.272Q286.734 104.76 286.758 105.251Q286.782 105.741 286.782 106.232Q286.782 106.723 286.758 107.213Q286.734 107.704 286.686 108.192Q286.638 108.681 286.566 109.166Q286.494 109.652 286.398 110.134Q286.302 110.615 286.183 111.091Q286.063 111.568 285.921 112.037Q285.778 112.507 285.613 112.969Q285.448 113.432 285.26 113.885Q285.072 114.339 284.862 114.783Q284.652 115.227 284.421 115.66Q284.189 116.092 283.937 116.514Q283.684 116.935 283.412 117.343Q283.139 117.751 282.846 118.145Q282.554 118.54 282.243 118.919Q281.931 119.299 281.601 119.663Q281.272 120.026 280.925 120.373L203.141 198.157Q202.794 198.504 202.43 198.833Q202.067 199.163 201.687 199.475Q201.308 199.786 200.913 200.079Q200.519 200.371 200.111 200.644Q199.703 200.917 199.281 201.169Q198.86 201.421 198.427 201.653Q197.994 201.884 197.551 202.094Q197.107 202.304 196.653 202.492Q196.2 202.68 195.737 202.845Q195.275 203.011 194.805 203.153Q194.336 203.296 193.859 203.415Q193.383 203.534 192.902 203.63Q192.42 203.726 191.934 203.798Q191.449 203.87 190.96 203.918Q190.472 203.966 189.981 203.99Q189.491 204.014 189 204.014Q188.509 204.014 188.019 203.99Q187.528 203.966 187.04 203.918Q186.551 203.87 186.065 203.798Q185.58 203.726 185.098 203.63Q184.617 203.534 184.141 203.415Q183.664 203.296 183.195 203.153Q182.725 203.011 182.262 202.845Q181.8 202.68 181.347 202.492Q180.893 202.304 180.449 202.094Q180.006 201.884 179.573 201.653Q179.14 201.421 178.718 201.169Q178.297 200.917 177.889 200.644Q177.481 200.371 177.087 200.079Q176.692 199.786 176.313 199.475Q175.933 199.163 175.569 198.833Q175.206 198.504 174.859 198.157L97.0754 120.373Q96.7282 120.026 96.3985 119.663Q96.0688 119.299 95.7574 118.919Q95.4459 118.54 95.1535 118.145Q94.861 117.751 94.5882 117.343Q94.3155 116.935 94.0631 116.514Q93.8107 116.092 93.5793 115.66Q93.3478 115.227 93.1379 114.783Q92.928 114.339 92.7401 113.885Q92.5522 113.432 92.3869 112.969Q92.2215 112.507 92.0789 112.037Q91.9364 111.568 91.8171 111.091Q91.6978 110.615 91.6021 110.134Q91.5063 109.652 91.4343 109.167Q91.3622 108.681 91.3141 108.192Q91.266 107.704 91.2419 107.213Q91.2178 106.723 91.2178 106.232Q91.2178 105.741 91.2419 105.251Q91.266 104.76 91.3141 104.272Q91.3622 103.783 91.4342 103.298Q91.5063 102.812 91.6021 102.33Q91.6978 101.849 91.8171 101.373Q91.9364 100.896 92.0789 100.427Q92.2215 99.9568 92.3868 99.4946Q92.5522 99.0323 92.7401 98.5788Q92.928 98.1252 93.1379 97.6814Q93.3478 97.2376 93.5793 96.8046Q93.8107 96.3716 94.0631 95.9505Q94.3155 95.5294 94.5882 95.1212Q94.861 94.713 95.1535 94.3187Q95.4459 93.9243 95.7574 93.5448Q96.0688 93.1653 96.3985 92.8015Q96.7282 92.4378 97.0754 92.0906L126.324 62.8423L143.835 45.3314L174.859 14.3075Q175.206 13.9603 175.569 13.6306Q175.933 13.3009 176.313 12.9895Q176.692 12.678 177.087 12.3855Q177.481 12.0931 177.889 11.8203Q178.297 11.5476 178.718 11.2952Q179.14 11.0428 179.573 10.8113Q180.005 10.5799 180.449 10.37Q180.893 10.1601 181.347 9.97222Q181.8 9.78434 182.262 9.61895Q182.725 9.45355 183.195 9.31104Q183.664 9.16852 184.141 9.04923Q184.617 8.92994 185.098 8.83416Q185.58 8.73838 186.065 8.66635Q186.551 8.59431 187.04 8.54619Q187.528 8.49807 188.019 8.47398Q188.509 8.44989 189 8.44989Q189.491 8.44989 189.981 8.47398Q190.472 8.49807 190.96 8.54619Q191.449 8.59431 191.934 8.66635Q192.42 8.73838 192.902 8.83416Q193.383 8.92994 193.859 9.04923Q194.336 9.16852 194.805 9.31104Q195.275 9.45355 195.737 9.61895Q196.2 9.78434 196.653 9.97222Q197.107 10.1601 197.551 10.37Q197.994 10.5799 198.427 10.8113Q198.86 11.0428 199.281 11.2952Q199.703 11.5476 200.111 11.8203Q200.519 12.0931 200.913 12.3855Q201.308 12.678 201.687 12.9895Q202.067 13.3009 202.43 13.6306Q202.794 13.9603 203.141 14.3075Z" id="path_2" />
    <clipPath id="clip_1">
      <use xlink:href="#path_1" />
    </clipPath>
    <clipPath id="clip_2">
      <use xlink:href="#path_2" />
    </clipPath>
  </defs>
  <g id="Groupes-6">
    <g id="Groupes">
      <g id="Rectangle-2">
        <g clip-path="url(#clip_1)">
          <use xlink:href="#path_1" fill="none" stroke="#4B879A" stroke-width="60" />
        </g>
      </g>
      <g id="Rectangle-3">
        <g clip-path="url(#clip_2)">
          <use xlink:href="#path_2" fill="none" stroke="#000000" stroke-width="60" />
        </g>
      </g>
      <path d="M147.066 171.066L169.066 149.066L147.066 127.066L124.066 148.066L147.066 171.066Z" id="Vecteur" fill="#4B879A" fill-rule="evenodd" stroke="none" />
      <path d="M125.066 150.066L148.066 127.066L103.066 82.066L78.066 110.066L125.066 150.066Z" id="Vecteur-2" fill="url(#gradient_1)" fill-rule="evenodd" stroke="none" />
      <path d="M125.646 149.846C127.603 149.846 129.141 144.893 130.525 144.201C135.868 141.528 138.631 134.264 143.729 131.715C144.846 131.156 146.57 127.649 147.603 127.649" id="Vecteur-3" fill="none" fill-rule="evenodd" stroke="#ABC0BE" stroke-width="1" />
      <path d="M128.66 147.167C128.66 145.873 131.393 143.141 132.247 142.287" id="Vecteur-4" fill="none" fill-rule="evenodd" stroke="#ABC0BE" stroke-width="1" />
      <path d="M147.066 85.066L170.066 62.066L215.066 107.066L192.066 130.066L147.066 85.066Z" id="Vecteur-5" fill="url(#gradient_2)" fill-rule="evenodd" stroke="none" />
      <path d="M158.166 108.066C158.166 91.4975 171.597 78.066 188.166 78.066C204.735 78.066 218.166 91.4975 218.166 108.066C218.166 124.635 204.735 138.066 188.166 138.066C171.597 138.066 158.166 124.635 158.166 108.066Z" id="Ovale" fill="#4B879A" fill-rule="evenodd" stroke="none" />
      <path d="M76.066 106.066C76.066 89.4975 89.4975 76.066 106.066 76.066C122.635 76.066 136.066 89.4975 136.066 106.066C136.066 122.635 122.635 136.066 106.066 136.066C89.4975 136.066 76.066 122.635 76.066 106.066Z" id="Ovale-2" fill="#000000" fill-rule="evenodd" stroke="none" />
    </g>
    <path d="M156.097 231.087L150.478 231.087C150.264 228.251 149.648 226.022 148.631 224.402C147.613 222.783 146.343 221.973 144.821 221.973C142.785 221.973 141.154 223.437 139.927 226.366C138.699 229.295 138.086 233.446 138.086 238.817C138.086 244.323 138.704 248.506 139.939 251.368C141.175 254.23 142.789 255.661 144.782 255.661C146.262 255.661 147.515 254.902 148.541 253.383C149.567 251.863 150.213 249.728 150.478 246.975L156.097 247.025C155.9 250.181 155.327 253.152 154.378 255.938C153.428 258.724 152.139 260.982 150.51 262.711C148.881 264.44 146.942 265.305 144.692 265.305C142.349 265.305 140.256 264.264 138.413 262.182C136.57 260.101 135.116 257.088 134.051 253.143C132.986 249.199 132.454 244.423 132.454 238.817C132.454 233.194 132.993 228.41 134.07 224.465C135.148 220.521 136.61 217.512 138.458 215.439C140.305 213.366 142.383 212.33 144.692 212.33C146.719 212.33 148.547 213.064 150.176 214.533C151.806 216.001 153.14 218.133 154.179 220.928C155.218 223.723 155.857 227.109 156.097 231.087L156.097 231.087ZM122.794 213.035L128.349 213.035L128.349 246.522C128.349 250.282 127.895 253.571 126.989 256.391C126.082 259.211 124.812 261.406 123.179 262.976C121.545 264.545 119.638 265.33 117.457 265.33C115.276 265.33 113.369 264.545 111.736 262.976C110.102 261.406 108.832 259.211 107.926 256.391C107.019 253.571 106.566 250.282 106.566 246.522L106.566 213.035L112.121 213.035L112.121 245.59C112.121 248.527 112.608 250.953 113.583 252.866C114.558 254.78 115.849 255.737 117.457 255.737C119.074 255.737 120.367 254.78 121.338 252.866C122.309 250.953 122.794 248.527 122.794 245.59L122.794 213.035L122.794 213.035ZM166.937 213.035L160.086 213.035L160.086 264.599L165.474 264.599L165.474 230.911L165.692 230.911L172.492 264.348L176.161 264.348L182.96 231.037L183.178 231.037L183.178 264.599L188.566 264.599L188.566 213.035L181.715 213.035L174.48 247.68L174.172 247.68L166.937 213.035L166.937 213.035Z" id="UCM" fill="url(#gradient_3)" fill-rule="evenodd" stroke="none" />
  </g>
</svg>