<?xml version="1.0" encoding="utf-8"?>
<svg width="723px" height="306.6px" viewBox="0 0 723 306.6" version="1.1" xmlns:xlink="http://www.w3.org/1999/xlink" xmlns="http://www.w3.org/2000/svg">
  <defs>
    <linearGradient gradientUnits="userSpaceOnUse" x1="58.994934" y1="51.887115" x2="70" y2="68" id="gradient_1">
      <stop offset="0%" stop-color="#ABC0BE" />
      <stop offset="100%" stop-color="#FFFFFF" />
    </linearGradient>
    <linearGradient gradientUnits="userSpaceOnUse" x1="-1.5315986" y1="-10.416614" x2="57.024853" y2="41.372093" id="gradient_2">
      <stop offset="0%" stop-color="#4B879A" />
      <stop offset="100%" stop-color="#030303" />
    </linearGradient>
    <path d="M173.207 51.1414L250.991 128.925Q251.338 129.272 251.667 129.635Q251.997 129.999 252.309 130.379Q252.62 130.758 252.913 131.153Q253.205 131.547 253.478 131.955Q253.75 132.363 254.003 132.784Q254.255 133.206 254.487 133.639Q254.718 134.072 254.928 134.515Q255.138 134.959 255.326 135.413Q255.514 135.866 255.679 136.329Q255.844 136.791 255.987 137.261Q256.129 137.73 256.249 138.207Q256.368 138.683 256.464 139.164Q256.56 139.646 256.632 140.132Q256.704 140.617 256.752 141.106Q256.8 141.594 256.824 142.085Q256.848 142.575 256.848 143.066Q256.848 143.557 256.824 144.047Q256.8 144.538 256.752 145.026Q256.704 145.515 256.632 146Q256.56 146.486 256.464 146.968Q256.368 147.449 256.249 147.925Q256.129 148.402 255.987 148.871Q255.844 149.341 255.679 149.803Q255.514 150.266 255.326 150.719Q255.138 151.173 254.928 151.617Q254.718 152.06 254.487 152.493Q254.255 152.926 254.003 153.348Q253.75 153.769 253.478 154.177Q253.205 154.585 252.912 154.979Q252.62 155.374 252.309 155.753Q251.997 156.133 251.667 156.496Q251.338 156.86 250.991 157.207L173.207 234.991Q172.86 235.338 172.497 235.667Q172.133 235.997 171.753 236.309Q171.374 236.62 170.979 236.912Q170.585 237.205 170.177 237.478Q169.769 237.75 169.348 238.003Q168.926 238.255 168.493 238.487Q168.06 238.718 167.617 238.928Q167.173 239.138 166.719 239.326Q166.266 239.514 165.803 239.679Q165.341 239.844 164.871 239.987Q164.402 240.129 163.925 240.249Q163.449 240.368 162.968 240.464Q162.486 240.56 162 240.632Q161.515 240.704 161.026 240.752Q160.538 240.8 160.047 240.824Q159.557 240.848 159.066 240.848Q158.575 240.848 158.085 240.824Q157.594 240.8 157.106 240.752Q156.617 240.704 156.132 240.632Q155.646 240.56 155.164 240.464Q154.683 240.368 154.207 240.249Q153.73 240.129 153.261 239.987Q152.791 239.844 152.329 239.679Q151.866 239.514 151.413 239.326Q150.959 239.138 150.515 238.928Q150.072 238.718 149.639 238.487Q149.206 238.255 148.784 238.003Q148.363 237.75 147.955 237.478Q147.547 237.205 147.153 236.912Q146.758 236.62 146.379 236.309Q145.999 235.997 145.635 235.667Q145.272 235.338 144.925 234.991L67.1414 157.207Q66.7943 156.86 66.4646 156.497Q66.1349 156.133 65.8234 155.753Q65.512 155.374 65.2195 154.979Q64.927 154.585 64.6543 154.177Q64.3815 153.769 64.1291 153.348Q63.8767 152.926 63.6453 152.493Q63.4139 152.06 63.204 151.617Q62.9941 151.173 62.8062 150.719Q62.6183 150.266 62.4529 149.803Q62.2875 149.341 62.145 148.871Q62.0025 148.402 61.8832 147.925Q61.7639 147.449 61.6681 146.968Q61.5723 146.486 61.5003 146Q61.4283 145.515 61.3801 145.026Q61.332 144.538 61.3079 144.047Q61.2838 143.557 61.2838 143.066Q61.2838 142.575 61.3079 142.085Q61.332 141.594 61.3801 141.106Q61.4283 140.617 61.5003 140.132Q61.5723 139.646 61.6681 139.164Q61.7639 138.683 61.8832 138.207Q62.0025 137.73 62.145 137.261Q62.2875 136.791 62.4529 136.329Q62.6183 135.866 62.8062 135.413Q62.9941 134.959 63.204 134.515Q63.4139 134.072 63.6453 133.639Q63.8767 133.206 64.1291 132.784Q64.3815 132.363 64.6543 131.955Q64.927 131.547 65.2195 131.153Q65.512 130.758 65.8234 130.379Q66.1349 129.999 66.4646 129.635Q66.7943 129.272 67.1414 128.925L144.925 51.1414Q145.272 50.7942 145.635 50.4645Q145.999 50.1348 146.379 49.8234Q146.758 49.5119 147.153 49.2195Q147.547 48.927 147.955 48.6543Q148.363 48.3815 148.784 48.1291Q149.206 47.8767 149.639 47.6453Q150.072 47.4138 150.515 47.2039Q150.959 46.994 151.413 46.8062Q151.866 46.6183 152.329 46.4529Q152.791 46.2875 153.261 46.145Q153.73 46.0025 154.207 45.8832Q154.683 45.7639 155.164 45.6681Q155.646 45.5723 156.132 45.5003Q156.617 45.4282 157.106 45.3801Q157.594 45.332 158.085 45.3079Q158.575 45.2838 159.066 45.2838Q159.557 45.2838 160.047 45.3079Q160.538 45.332 161.026 45.3801Q161.515 45.4282 162 45.5003Q162.486 45.5723 162.968 45.6681Q163.449 45.7639 163.925 45.8832Q164.402 46.0025 164.871 46.145Q165.341 46.2875 165.803 46.4529Q166.266 46.6183 166.719 46.8062Q167.173 46.994 167.617 47.2039Q168.06 47.4138 168.493 47.6453Q168.926 47.8767 169.348 48.1291Q169.769 48.3815 170.177 48.6543Q170.585 48.927 170.979 49.2195Q171.374 49.5119 171.753 49.8234Q172.133 50.1348 172.497 50.4645Q172.86 50.7942 173.207 51.1414Z" id="path_1" />
    <path d="M256.141 51.1414L333.925 128.925Q334.272 129.272 334.601 129.636Q334.931 129.999 335.243 130.379Q335.554 130.758 335.846 131.153Q336.139 131.547 336.412 131.955Q336.684 132.363 336.937 132.784Q337.189 133.206 337.421 133.639Q337.652 134.072 337.862 134.515Q338.072 134.959 338.26 135.413Q338.448 135.866 338.613 136.329Q338.778 136.791 338.921 137.261Q339.063 137.73 339.183 138.207Q339.302 138.683 339.398 139.164Q339.494 139.646 339.566 140.132Q339.638 140.617 339.686 141.106Q339.734 141.594 339.758 142.085Q339.782 142.575 339.782 143.066Q339.782 143.557 339.758 144.047Q339.734 144.538 339.686 145.026Q339.638 145.515 339.566 146Q339.494 146.486 339.398 146.968Q339.302 147.449 339.183 147.925Q339.063 148.402 338.921 148.871Q338.778 149.341 338.613 149.803Q338.448 150.266 338.26 150.719Q338.072 151.173 337.862 151.617Q337.652 152.061 337.421 152.493Q337.189 152.926 336.937 153.348Q336.684 153.769 336.412 154.177Q336.139 154.585 335.846 154.979Q335.554 155.374 335.243 155.753Q334.931 156.133 334.601 156.497Q334.272 156.86 333.925 157.207L256.141 234.991Q255.794 235.338 255.43 235.667Q255.067 235.997 254.687 236.309Q254.308 236.62 253.913 236.913Q253.519 237.205 253.111 237.478Q252.703 237.75 252.281 238.003Q251.86 238.255 251.427 238.487Q250.994 238.718 250.551 238.928Q250.107 239.138 249.653 239.326Q249.2 239.514 248.737 239.679Q248.275 239.844 247.805 239.987Q247.336 240.13 246.859 240.249Q246.383 240.368 245.902 240.464Q245.42 240.56 244.934 240.632Q244.449 240.704 243.96 240.752Q243.472 240.8 242.981 240.824Q242.491 240.848 242 240.848Q241.509 240.848 241.019 240.824Q240.528 240.8 240.04 240.752Q239.551 240.704 239.065 240.632Q238.58 240.56 238.098 240.464Q237.617 240.368 237.141 240.249Q236.664 240.13 236.195 239.987Q235.725 239.844 235.262 239.679Q234.8 239.514 234.347 239.326Q233.893 239.138 233.449 238.928Q233.005 238.718 232.572 238.487Q232.139 238.255 231.718 238.003Q231.297 237.75 230.889 237.478Q230.481 237.205 230.087 236.913Q229.692 236.62 229.313 236.309Q228.933 235.997 228.569 235.667Q228.206 235.338 227.859 234.991L150.075 157.207Q149.728 156.86 149.399 156.497Q149.069 156.133 148.757 155.753Q148.446 155.374 148.153 154.979Q147.861 154.585 147.588 154.177Q147.315 153.769 147.063 153.348Q146.811 152.926 146.579 152.493Q146.348 152.061 146.138 151.617Q145.928 151.173 145.74 150.719Q145.552 150.266 145.387 149.803Q145.221 149.341 145.079 148.871Q144.936 148.402 144.817 147.925Q144.698 147.449 144.602 146.968Q144.506 146.486 144.434 146Q144.362 145.515 144.314 145.026Q144.266 144.538 144.242 144.047Q144.218 143.557 144.218 143.066Q144.218 142.575 144.242 142.085Q144.266 141.594 144.314 141.106Q144.362 140.617 144.434 140.132Q144.506 139.646 144.602 139.164Q144.698 138.683 144.817 138.207Q144.936 137.73 145.079 137.261Q145.221 136.791 145.387 136.329Q145.552 135.866 145.74 135.413Q145.928 134.959 146.138 134.515Q146.348 134.072 146.579 133.639Q146.811 133.206 147.063 132.784Q147.315 132.363 147.588 131.955Q147.861 131.547 148.153 131.153Q148.446 130.758 148.757 130.379Q149.069 129.999 149.399 129.636Q149.728 129.272 150.075 128.925L179.324 99.6763L196.835 82.1654L227.859 51.1414Q228.206 50.7943 228.569 50.4646Q228.933 50.1349 229.313 49.8234Q229.692 49.512 230.087 49.2195Q230.481 48.927 230.889 48.6543Q231.297 48.3815 231.718 48.1291Q232.139 47.8767 232.572 47.6453Q233.005 47.4139 233.449 47.204Q233.893 46.9941 234.347 46.8062Q234.8 46.6183 235.262 46.4529Q235.725 46.2875 236.195 46.145Q236.664 46.0025 237.141 45.8832Q237.617 45.7639 238.098 45.6681Q238.58 45.5724 239.065 45.5003Q239.551 45.4283 240.04 45.3802Q240.528 45.332 241.019 45.3079Q241.509 45.2839 242 45.2839Q242.491 45.2839 242.981 45.3079Q243.472 45.332 243.96 45.3802Q244.449 45.4283 244.934 45.5003Q245.42 45.5724 245.902 45.6681Q246.383 45.7639 246.859 45.8832Q247.336 46.0025 247.805 46.145Q248.275 46.2875 248.737 46.4529Q249.2 46.6183 249.653 46.8062Q250.107 46.9941 250.551 47.204Q250.994 47.4139 251.427 47.6453Q251.86 47.8767 252.281 48.1291Q252.703 48.3815 253.111 48.6543Q253.519 48.927 253.913 49.2195Q254.308 49.512 254.687 49.8234Q255.067 50.1349 255.43 50.4646Q255.794 50.7943 256.141 51.1414Z" id="path_2" />
    <clipPath id="clip_1">
      <use xlink:href="#path_1" />
    </clipPath>
    <clipPath id="clip_2">
      <use xlink:href="#path_2" />
    </clipPath>
  </defs>
  <g id="Groupes">
    <g id="University-Classe-Managment" transform="translate(348.066 96.88269)">
      <path d="M30.2881 6.99427C29.8148 6.99427 29.407 6.65078 29.0647 5.96378C28.7223 5.27681 28.5511 4.4519 28.5511 3.48905C28.5511 2.52619 28.7223 1.70397 29.0647 1.02238C29.407 0.340796 29.8148 0 30.2881 0C30.7663 0 31.1766 0.340796 31.5189 1.02238C31.8612 1.70397 32.0323 2.52619 32.0323 3.48905C32.0323 4.4519 31.8612 5.27681 31.5189 5.96378C31.1766 6.65078 30.7663 6.99427 30.2881 6.99427L30.2881 6.99427ZM80.6546 5.96378C80.9969 6.65078 81.4048 6.99427 81.878 6.99427C82.3562 6.99427 82.7665 6.65078 83.1089 5.96378C83.4512 5.27681 83.6224 4.4519 83.6224 3.48905C83.6224 2.52619 83.4512 1.70397 83.1089 1.02238C82.7665 0.340796 82.3562 0 81.878 0C81.4048 0 80.9969 0.340796 80.6546 1.02238C80.3124 1.70397 80.1413 2.52619 80.1413 3.48905C80.1413 4.4519 80.3124 5.27681 80.6546 5.96378L80.6546 5.96378ZM12.822 1.89868L9.55231 1.89868L9.55231 22.8815C9.55231 24.7747 9.26663 26.338 8.69524 27.5713C8.12387 28.8046 7.36245 29.4212 6.41099 29.4212C5.46456 29.4212 4.70442 28.8046 4.13053 27.5713C3.55663 26.338 3.26968 24.7747 3.26968 22.8815L3.26968 1.89868L0 1.89868L0 23.4819C0 25.9053 0.266806 28.0257 0.800433 29.8431C1.33405 31.6607 2.08162 33.0753 3.04315 34.087C4.00467 35.0984 5.12728 35.6041 6.41099 35.6041C7.69471 35.6041 8.81732 35.0984 9.77885 34.087C10.7404 33.0753 11.4879 31.6607 12.0216 29.8431C12.5552 28.0257 12.822 25.9053 12.822 23.4819L12.822 1.89868L12.822 1.89868ZM92.2156 10.2074L92.2156 15.4003L90.0334 15.4003L90.0334 27.474C90.0334 28.4261 90.134 29.0698 90.3353 29.4052C90.5367 29.7406 90.7985 29.9082 91.1207 29.9082C91.2717 29.9082 91.4227 29.8784 91.5738 29.8188C91.7248 29.7593 91.8406 29.7134 91.9211 29.6809L92.427 34.8253C92.266 34.9335 92.0395 35.0606 91.7475 35.2065C91.4554 35.3525 91.1005 35.4417 90.6826 35.4743C89.5148 35.5824 88.5772 35.0389 87.8699 33.8436C87.1626 32.6481 86.8115 30.8278 86.8165 28.3827L86.8165 15.4003L85.2307 15.4003L85.2307 10.2074L86.8165 10.2074L86.8165 4.23549L90.0334 4.23549L90.0334 10.2074L92.2156 10.2074L92.2156 10.2074ZM59.6244 10.2074L59.6244 35.1335L62.8414 35.1335L62.8414 21.0315C62.8414 19.4952 63.0742 18.2484 63.5399 17.2909C64.0055 16.3335 64.5932 15.8548 65.3031 15.8548C65.5246 15.8548 65.7687 15.8899 66.0354 15.9602C66.3023 16.0306 66.5112 16.1198 66.6622 16.228L66.6622 10.0938C66.3451 9.93154 66.0078 9.85041 65.6504 9.85041C65.001 9.85041 64.4271 10.248 63.9287 11.0432C63.4302 11.8383 63.0754 13.0095 62.864 14.5565L62.7432 14.5565L62.7432 10.2074L59.6244 10.2074L59.6244 10.2074ZM18.6666 35.1334L18.6666 20.7232C18.6717 19.1112 18.8768 17.8589 19.282 16.9664C19.6874 16.0738 20.2147 15.6276 20.8641 15.6276C21.5084 15.6276 22.0143 16.0576 22.3818 16.9177C22.7494 17.7778 22.9306 18.9705 22.9255 20.496L22.9255 35.1334L26.1424 35.1334L26.1424 19.2626C26.1424 16.3524 25.7775 14.0616 25.0475 12.3901C24.3175 10.7186 23.3484 9.88283 22.1401 9.88283C21.2793 9.88283 20.5481 10.3075 19.9466 11.1567C19.345 12.006 18.9133 13.1555 18.6516 14.6052L18.5156 14.6052L18.5156 10.2074L15.4498 10.2074L15.4498 35.1334L18.6666 35.1334L18.6666 35.1334ZM52.2016 35.6205C51.0135 35.6205 49.9891 35.0985 49.1284 34.0546C48.2675 33.0104 47.6055 31.5281 47.1423 29.6078C46.6792 27.6876 46.4477 25.413 46.4477 22.7841C46.4477 20.2201 46.6792 17.9698 47.1423 16.0333C47.6055 14.0967 48.2587 12.5875 49.1018 11.5056C49.9451 10.4238 50.9356 9.88283 52.0733 9.88283C53.0952 9.88283 54.0177 10.348 54.8409 11.2785C55.6639 12.2089 56.3171 13.6126 56.8004 15.4896C57.2837 17.3667 57.5253 19.717 57.5253 22.5407L57.5253 24.4394L49.6267 24.4394L49.6267 24.4556C49.6267 26.3164 49.8633 27.7823 50.3365 28.8534C50.8097 29.9245 51.449 30.4601 52.2546 30.4601C52.7932 30.4601 53.2588 30.2166 53.6515 29.7297C54.0442 29.2427 54.3211 28.5233 54.4822 27.5713L57.4572 27.9933C57.2308 30.3086 56.6569 32.1585 55.7356 33.5432C54.8144 34.9281 53.6364 35.6205 52.2016 35.6205L52.2016 35.6205ZM77.9664 17.3153L75.0215 17.7047C74.9409 16.9042 74.737 16.2172 74.4098 15.6438C74.0826 15.0704 73.6396 14.7837 73.0808 14.7837C72.5824 14.7837 72.1608 15.0082 71.8159 15.4572C71.4711 15.9061 71.3012 16.5039 71.3063 17.2503C71.3012 17.8454 71.4107 18.3485 71.6346 18.7596C71.8587 19.1707 72.2401 19.5006 72.7787 19.7495L74.878 20.6582C77.1081 21.6427 78.2258 23.893 78.2308 27.4091C78.2308 29.0427 78.008 30.4762 77.5624 31.7095C77.1169 32.9429 76.5065 33.903 75.7312 34.59C74.956 35.277 74.0675 35.6205 73.0657 35.6205C71.5303 35.6205 70.307 34.9309 69.3959 33.5515C68.4846 32.172 67.9535 30.2922 67.8025 27.9121L70.9664 27.5551C71.0671 28.572 71.2999 29.3401 71.665 29.8595C72.0299 30.3787 72.4993 30.6383 73.0732 30.6383C73.637 30.6383 74.0914 30.4003 74.4362 29.9243C74.7811 29.4482 74.956 28.8425 74.9611 28.107C74.946 26.8736 74.4501 26.0459 73.4735 25.624L71.4649 24.7639C69.2196 23.801 68.102 21.4263 68.112 17.6398C68.1071 15.2381 68.5539 13.3448 69.4524 11.96C70.3511 10.5752 71.5429 9.88283 73.028 9.88283C74.4929 9.88283 75.6469 10.5482 76.4902 11.8789C77.3334 13.2096 77.8255 15.0217 77.9664 17.3153L77.9664 17.3153ZM28.672 35.1335L28.672 10.2074L31.8889 10.2074L31.8889 35.1335L28.672 35.1335L28.672 35.1335ZM41.2145 35.1335L45.2696 10.2074L41.864 10.2074L39.4627 28.0419L39.3419 28.0419L36.9332 10.2074L33.5349 10.2074L37.59 35.1335L41.2145 35.1335L41.2145 35.1335ZM80.2621 10.2074L80.2621 35.1335L83.4789 35.1335L83.4789 10.2074L80.2621 10.2074L80.2621 10.2074ZM95.1492 44.278C95.5042 44.4133 95.8855 44.481 96.2932 44.481C97.4914 44.481 98.429 43.8751 99.1061 42.6633C99.7832 41.4516 100.285 39.8396 100.613 37.8273L105.121 10.2074L101.715 10.2074L99.2911 28.5126L99.1703 28.5126L96.769 10.2074L93.3861 10.2074L97.5468 35.8475L97.358 36.9024C97.1466 38.071 96.842 38.739 96.4444 38.9066C96.0466 39.0744 95.5633 38.9744 94.9945 38.6065L94.2696 43.7669C94.5011 43.9723 94.7943 44.1427 95.1492 44.278L95.1492 44.278ZM49.6267 20.1552L54.4973 20.1552C54.4922 18.673 54.2707 17.4505 53.8327 16.4876C53.3947 15.5248 52.8258 15.0433 52.1261 15.0433C51.4113 15.0433 50.8248 15.541 50.3667 16.5363C49.9085 17.5316 49.6619 18.7379 49.6267 20.1552L49.6267 20.1552Z" id="University-" fill="#4B879A" fill-rule="evenodd" stroke="none" />
      <path d="M122.096 13.5342L125.403 13.5342C125.262 10.9701 124.886 8.78747 124.274 6.98617C123.663 5.18485 122.877 3.81087 121.918 2.86425C120.959 1.91764 119.883 1.44433 118.69 1.44433C117.331 1.44433 116.108 2.11238 115.02 3.44846C113.933 4.78456 113.072 6.72381 112.438 9.2662C111.803 11.8086 111.486 14.8919 111.486 18.5161C111.486 22.1296 111.8 25.2075 112.426 27.7499C113.053 30.2922 113.909 32.234 114.994 33.5755C116.079 34.9173 117.311 35.5882 118.69 35.5882C120.014 35.5882 121.156 35.0309 122.115 33.9164C123.074 32.8021 123.833 31.347 124.391 29.5511C124.95 27.7552 125.288 25.8404 125.403 23.8064L122.096 23.774C121.94 25.5483 121.56 26.9249 120.956 27.904C120.351 28.8832 119.614 29.3728 118.743 29.3728C117.57 29.3728 116.62 28.4505 115.892 26.6058C115.165 24.7612 114.801 22.0647 114.801 18.5161C114.801 15.0542 115.162 12.3793 115.885 10.4914C116.607 8.60356 117.568 7.65964 118.766 7.65964C119.662 7.65964 120.409 8.18164 121.009 9.22564C121.608 10.2696 121.97 11.7058 122.096 13.5342L122.096 13.5342ZM127.691 35.1334L130.908 35.1334L130.908 1.89868L127.691 1.89868L127.691 35.1334L127.691 35.1334ZM136.783 35.6041C135.676 35.6041 134.757 34.9821 134.027 33.7381C133.297 32.4939 132.932 30.6384 132.932 28.1717C132.932 26.311 133.136 24.8505 133.543 23.7902C133.951 22.73 134.486 21.9538 135.148 21.4615C135.81 20.9693 136.524 20.6474 137.289 20.496C138.296 20.2796 139.016 20.0524 139.449 19.8144C139.881 19.5764 140.098 19.0571 140.098 18.2565L140.098 18.1591C140.098 17.1314 139.948 16.3362 139.649 15.7736C139.349 15.211 138.925 14.9298 138.376 14.9298C137.797 14.9298 137.337 15.2002 136.994 15.7412C136.652 16.2821 136.426 16.9691 136.315 17.8021L133.34 17.2828C133.561 15.0109 134.111 13.2096 134.99 11.8789C135.868 10.5482 137.002 9.88283 138.391 9.88283C139.252 9.88283 140.058 10.175 140.808 10.7592C141.558 11.3434 142.163 12.2548 142.624 13.4936C143.084 14.7323 143.315 16.3416 143.315 18.3214L143.315 35.1335L140.264 35.1335L140.264 31.6772L140.173 31.6772C139.892 32.8346 139.47 33.7785 138.909 34.5089C138.347 35.2391 137.639 35.6041 136.783 35.6041L136.783 35.6041ZM152.52 17.7047L155.465 17.3153C155.324 15.0217 154.832 13.2096 153.988 11.8789C153.145 10.5482 151.991 9.88283 150.526 9.88283C149.041 9.88283 147.849 10.5752 146.951 11.96C146.052 13.3448 145.605 15.2381 145.61 17.6398C145.6 21.4263 146.718 23.801 148.963 24.7639L150.972 25.624C151.948 26.0459 152.444 26.8736 152.459 28.107C152.454 28.8425 152.279 29.4482 151.935 29.9243C151.59 30.4003 151.135 30.6383 150.572 30.6383C149.998 30.6383 149.528 30.3787 149.163 29.8595C148.798 29.3401 148.565 28.572 148.465 27.5551L145.301 27.9121C145.452 30.2921 145.983 32.172 146.894 33.5515C147.805 34.9309 149.029 35.6205 150.564 35.6205C151.566 35.6205 152.454 35.277 153.23 34.59C154.005 33.903 154.615 32.9429 155.061 31.7095C155.506 30.4762 155.729 29.0427 155.729 27.4091C155.724 23.893 154.606 21.6427 152.376 20.6582L150.277 19.7494C149.738 19.5006 149.357 19.1707 149.133 18.7595C148.909 18.3484 148.8 17.8454 148.805 17.2503C148.8 16.5039 148.969 15.9061 149.314 15.4572C149.659 15.0082 150.081 14.7837 150.579 14.7837C151.138 14.7837 151.581 15.0704 151.908 15.6438C152.235 16.2172 152.439 16.9041 152.52 17.7047L152.52 17.7047ZM167.411 17.3153L164.466 17.7047C164.385 16.9041 164.181 16.2172 163.854 15.6438C163.527 15.0704 163.084 14.7837 162.525 14.7837C162.027 14.7837 161.605 15.0082 161.26 15.4572C160.916 15.9061 160.746 16.5039 160.751 17.2503C160.746 17.8454 160.855 18.3484 161.079 18.7595C161.303 19.1707 161.684 19.5006 162.223 19.7494L164.322 20.6582C166.552 21.6427 167.67 23.893 167.675 27.4091C167.675 29.0427 167.452 30.4762 167.007 31.7095C166.561 32.9429 165.951 33.903 165.176 34.59C164.4 35.277 163.512 35.6205 162.51 35.6205C160.975 35.6205 159.751 34.9309 158.84 33.5515C157.929 32.172 157.398 30.2921 157.247 27.9121L160.411 27.5551C160.512 28.572 160.744 29.3401 161.109 29.8595C161.474 30.3787 161.944 30.6383 162.518 30.6383C163.081 30.6383 163.536 30.4003 163.881 29.9243C164.225 29.4482 164.4 28.8425 164.405 28.107C164.39 26.8736 163.894 26.0459 162.918 25.624L160.909 24.7639C158.664 23.801 157.546 21.4263 157.556 17.6398C157.551 15.2381 157.998 13.3448 158.897 11.96C159.795 10.5752 160.987 9.88283 162.472 9.88283C163.937 9.88283 165.091 10.5482 165.935 11.8789C166.778 13.2096 167.27 15.0217 167.411 17.3153L167.411 17.3153ZM171.919 34.0546C172.78 35.0985 173.804 35.6205 174.992 35.6205C176.427 35.6205 177.605 34.928 178.527 33.5431C179.448 32.1585 180.022 30.3086 180.247 27.9933L177.272 27.5713C177.111 28.5233 176.835 29.2427 176.443 29.7297C176.05 30.2166 175.584 30.4601 175.045 30.4601C174.24 30.4601 173.6 29.9245 173.127 28.8534C172.654 27.7823 172.417 26.3164 172.417 24.4556L172.417 24.4394L180.316 24.4394L180.316 22.5407C180.316 19.717 180.075 17.3667 179.592 15.4896C179.107 13.6126 178.454 12.2089 177.632 11.2785C176.808 10.348 175.886 9.88283 174.864 9.88283C173.726 9.88283 172.736 10.4238 171.892 11.5056C171.049 12.5875 170.396 14.0967 169.933 16.0333C169.47 17.9698 169.238 20.2201 169.238 22.7841C169.238 25.413 169.47 27.6876 169.933 29.6078C170.396 31.5281 171.058 33.0104 171.919 34.0546L171.919 34.0546ZM177.288 20.1552L172.417 20.1552C172.452 18.7379 172.699 17.5316 173.157 16.5363C173.615 15.541 174.202 15.0433 174.917 15.0433C175.616 15.0433 176.185 15.5248 176.624 16.4876C177.062 17.4505 177.283 18.673 177.288 20.1552L177.288 20.1552ZM137.704 30.8333C138.409 30.8333 138.988 30.3924 139.441 29.5107C139.894 28.629 140.121 27.5336 140.121 26.2244L140.121 23.5793C139.995 23.7632 139.8 23.9255 139.535 24.0661C139.271 24.2067 138.989 24.3284 138.69 24.4312C138.39 24.534 138.122 24.6233 137.885 24.699C137.322 24.8721 136.867 25.2129 136.522 25.7214C136.178 26.2298 136.005 26.9709 136.005 27.9446C136.005 28.8967 136.165 29.6162 136.485 30.1029C136.804 30.5898 137.211 30.8333 137.704 30.8333L137.704 30.8333Z" id="Classe" fill="#000000" fill-rule="evenodd" stroke="none" />
      <path d="M191.439 1.89868L187.406 1.89868L187.406 35.1334L190.578 35.1334L190.578 13.4205L190.706 13.4205L194.709 34.9712L196.869 34.9712L200.87 13.5017L201 13.5017L201 35.1334L204.17 35.1334L204.17 1.89868L200.138 1.89868L195.878 24.2284L195.698 24.2284L191.439 1.89868L191.439 1.89868ZM207.349 33.7381C208.079 34.9821 208.998 35.6041 210.106 35.6041C210.961 35.6041 211.669 35.2391 212.231 34.5089C212.792 33.7785 213.213 32.8346 213.496 31.6771L213.586 31.6771L213.586 35.1334L216.638 35.1334L216.638 18.3214C216.638 16.3416 216.407 14.7323 215.947 13.4936C215.486 12.2548 214.88 11.3434 214.13 10.7592C213.38 10.1749 212.574 9.88283 211.713 9.88283C210.324 9.88283 209.19 10.5482 208.313 11.8789C207.434 13.2096 206.884 15.0109 206.663 17.2828L209.638 17.8021C209.748 16.969 209.974 16.2821 210.317 15.7412C210.659 15.2002 211.12 14.9298 211.699 14.9298C212.247 14.9298 212.671 15.211 212.971 15.7736C213.27 16.3362 213.42 17.1313 213.42 18.1591L213.42 18.2565C213.42 19.0571 213.203 19.5764 212.771 19.8144C212.338 20.0524 211.617 20.2796 210.611 20.496C209.845 20.6474 209.132 20.9693 208.47 21.4615C207.809 21.9538 207.274 22.73 206.867 23.7902C206.458 24.8505 206.254 26.311 206.254 28.1717C206.254 30.6384 206.619 32.4939 207.349 33.7381L207.349 33.7381ZM222.354 20.7232L222.354 35.1334L219.136 35.1334L219.136 10.2074L222.202 10.2074L222.202 14.6052L222.338 14.6052C222.6 13.1555 223.032 12.006 223.634 11.1567C224.235 10.3075 224.966 9.88283 225.827 9.88283C227.036 9.88283 228.005 10.7186 228.733 12.3901C229.464 14.0616 229.829 16.3524 229.829 19.2626L229.829 35.1334L226.612 35.1334L226.612 20.496C226.617 18.9705 226.436 17.7778 226.068 16.9177C225.701 16.0576 225.195 15.6276 224.551 15.6276C223.902 15.6276 223.374 16.0738 222.969 16.9664C222.564 17.8589 222.359 19.1112 222.354 20.7232L222.354 20.7232ZM232.91 33.7381C233.64 34.9821 234.559 35.6041 235.666 35.6041C236.522 35.6041 237.231 35.2391 237.792 34.5089C238.353 33.7785 238.775 32.8346 239.057 31.6771L239.148 31.6771L239.148 35.1334L242.199 35.1334L242.199 18.3214C242.199 16.3416 241.969 14.7323 241.508 13.4936C241.047 12.2548 240.442 11.3434 239.692 10.7592C238.941 10.1749 238.136 9.88283 237.275 9.88283C235.885 9.88283 234.751 10.5482 233.872 11.8789C232.995 13.2096 232.445 15.0109 232.223 17.2828L235.198 17.8021C235.309 16.969 235.536 16.2821 235.878 15.7412C236.221 15.2002 236.682 14.9298 237.26 14.9298C237.809 14.9298 238.233 15.211 238.533 15.7736C238.832 16.3362 238.981 17.1313 238.981 18.1591L238.981 18.2565C238.981 19.0571 238.765 19.5764 238.332 19.8144C237.899 20.0524 237.179 20.2796 236.172 20.496C235.407 20.6474 234.693 20.9693 234.032 21.4615C233.369 21.9538 232.834 22.73 232.426 23.7902C232.019 24.8505 231.815 26.311 231.815 28.1717C231.815 30.6384 232.18 32.4939 232.91 33.7381L232.91 33.7381ZM212.764 29.5107C212.31 30.3924 211.731 30.8333 211.027 30.8333C210.534 30.8333 210.127 30.5898 209.806 30.1029C209.488 29.6162 209.328 28.8967 209.328 27.9446C209.328 26.9709 209.501 26.2298 209.845 25.7214C210.19 25.2129 210.645 24.8721 211.208 24.699C211.444 24.6233 211.713 24.534 212.013 24.4312C212.311 24.3284 212.593 24.2067 212.858 24.0661C213.122 23.9255 213.317 23.7632 213.443 23.5793L213.443 26.2244C213.443 27.5336 213.216 28.629 212.764 29.5107L212.764 29.5107ZM238.324 29.5107C237.871 30.3924 237.292 30.8333 236.587 30.8333C236.094 30.8333 235.688 30.5898 235.368 30.1029C235.049 29.6162 234.889 28.8967 234.889 27.9446C234.889 26.9709 235.061 26.2298 235.405 25.7214C235.75 25.2129 236.205 24.8721 236.77 24.699C237.006 24.6233 237.273 24.534 237.572 24.4312C237.872 24.3284 238.155 24.2067 238.419 24.0661C238.683 23.9255 238.878 23.7632 239.004 23.5793L239.004 26.2244C239.004 27.5336 238.777 28.629 238.324 29.5107L238.324 29.5107Z" id="-Mana" fill="#4B879A" fill-rule="evenodd" stroke="none" />
      <path d="M246.246 42.9962C247.137 44.3321 248.363 45 249.923 45C251.03 45 252.01 44.6404 252.861 43.9212C253.712 43.2017 254.38 42.1279 254.865 40.6998C255.351 39.2718 255.594 37.4975 255.594 35.3772L255.594 10.2074L252.401 10.2074L252.401 14.3942L252.278 14.3942C252.138 13.7127 251.932 13.0257 251.66 12.3333C251.388 11.6409 251.033 11.0594 250.595 10.5888C250.157 10.1181 249.613 9.88283 248.965 9.88283C248.119 9.88283 247.34 10.3561 246.627 11.3028C245.915 12.2494 245.343 13.664 244.912 15.5464C244.482 17.4289 244.267 19.7873 244.267 22.6218C244.267 25.3806 244.477 27.6579 244.898 29.4539C245.318 31.2496 245.885 32.5856 246.597 33.462C247.31 34.3384 248.101 34.7766 248.972 34.7766C249.898 34.7766 250.628 34.3573 251.162 33.5188C251.695 32.6805 252.067 31.7474 252.278 30.7194L252.415 30.7194L252.415 35.2797C252.415 36.989 252.187 38.2088 251.731 38.9389C251.276 39.6693 250.698 40.0345 249.998 40.0345C249.289 40.0345 248.744 39.7505 248.364 39.1823C247.983 38.6144 247.728 37.9517 247.597 37.1944L244.621 38.0547C244.813 40.0128 245.354 41.66 246.246 42.9962L246.246 42.9962ZM258.161 10.2074L258.161 35.1334L261.378 35.1334L261.378 20.1714C261.378 18.7866 261.559 17.675 261.922 16.8365C262.284 15.9981 262.733 15.5789 263.267 15.5789C263.795 15.5789 264.221 15.9413 264.546 16.6661C264.871 17.391 265.033 18.3647 265.033 19.5872L265.033 35.1334L268.152 35.1334L268.152 19.9117C268.152 18.6243 268.316 17.5803 268.643 16.7797C268.97 15.9792 269.426 15.5789 270.009 15.5789C270.523 15.5789 270.951 15.9251 271.294 16.6175C271.635 17.3099 271.806 18.3485 271.806 19.7332L271.806 35.1334L275.015 35.1334L275.015 18.3701C275.015 15.6654 274.677 13.5747 274 12.098C273.323 10.6212 272.443 9.88283 271.361 9.88283C270.511 9.88283 269.774 10.3129 269.151 11.173C268.53 12.0331 268.101 13.1771 267.865 14.6052L267.745 14.6052C267.558 13.1555 267.185 12.006 266.626 11.1567C266.068 10.3075 265.391 9.88283 264.596 9.88283C263.815 9.88283 263.141 10.3021 262.576 11.1405C262.008 11.979 261.604 13.1339 261.363 14.6052L261.227 14.6052L261.227 10.2074L258.161 10.2074L258.161 10.2074ZM282.839 35.6205C281.65 35.6205 280.626 35.0985 279.766 34.0546C278.905 33.0104 278.242 31.5281 277.779 29.6078C277.316 27.6876 277.085 25.413 277.085 22.7841C277.085 20.2201 277.316 17.9698 277.779 16.0333C278.242 14.0967 278.896 12.5875 279.739 11.5056C280.583 10.4238 281.573 9.88283 282.711 9.88283C283.733 9.88283 284.655 10.348 285.477 11.2785C286.301 12.2089 286.954 13.6126 287.437 15.4896C287.92 17.3667 288.162 19.717 288.162 22.5407L288.162 24.4394L280.264 24.4394L280.264 24.4556C280.264 26.3164 280.501 27.7823 280.974 28.8534C281.447 29.9245 282.086 30.4601 282.892 30.4601C283.43 30.4601 283.896 30.2166 284.288 29.7297C284.681 29.2427 284.958 28.5233 285.119 27.5713L288.094 27.9933C287.868 30.3086 287.293 32.1585 286.372 33.5431C285.452 34.928 284.274 35.6205 282.839 35.6205L282.839 35.6205ZM293.478 35.1334L293.478 20.7232C293.484 19.1112 293.689 17.8589 294.094 16.9664C294.5 16.0738 295.027 15.6276 295.675 15.6276C296.32 15.6276 296.826 16.0576 297.194 16.9177C297.561 17.7778 297.742 18.9705 297.738 20.496L297.738 35.1334L300.954 35.1334L300.954 19.2626C300.954 16.3524 300.589 14.0616 299.859 12.3901C299.129 10.7186 298.16 9.88283 296.953 9.88283C296.092 9.88283 295.36 10.3075 294.759 11.1567C294.156 12.006 293.725 13.1555 293.464 14.6052L293.327 14.6052L293.327 10.2074L290.262 10.2074L290.262 35.1334L293.478 35.1334L293.478 35.1334ZM280.264 20.1552L285.135 20.1552C285.129 18.673 284.908 17.4505 284.471 16.4876C284.032 15.5248 283.464 15.0433 282.764 15.0433C282.048 15.0433 281.462 15.541 281.005 16.5363C280.546 17.5316 280.299 18.7379 280.264 20.1552L280.264 20.1552ZM251.793 27.7336C251.366 28.9671 250.766 29.5838 249.991 29.5838C249.2 29.5838 248.597 28.9563 248.18 27.7012C247.761 26.4462 247.552 24.7423 247.552 22.5893C247.552 20.4689 247.76 18.7379 248.174 17.3964C248.59 16.0549 249.196 15.3841 249.991 15.3841C250.771 15.3841 251.373 16.0387 251.796 17.3477C252.219 18.6568 252.431 20.404 252.431 22.5893C252.431 24.7856 252.218 26.5003 251.793 27.7336L251.793 27.7336Z" id="gmen" fill="#000000" fill-rule="evenodd" stroke="none" />
      <path d="M309.653 10.2074L309.653 15.4003L307.471 15.4003L307.471 27.474C307.471 28.4261 307.572 29.0698 307.773 29.4052C307.975 29.7406 308.236 29.9082 308.558 29.9082C308.709 29.9082 308.86 29.8784 309.011 29.8188C309.163 29.7593 309.278 29.7134 309.359 29.6809L309.865 34.8253C309.704 34.9335 309.477 35.0606 309.185 35.2065C308.893 35.3525 308.538 35.4417 308.12 35.4743C306.953 35.5824 306.016 35.0389 305.308 33.8436C304.6 32.6481 304.249 30.8278 304.253 28.3827L304.253 15.4003L302.669 15.4003L302.669 10.2074L304.253 10.2074L304.253 4.23549L307.471 4.23549L307.471 10.2074L309.653 10.2074L309.653 10.2074Z" id="t" fill="#030303" fill-rule="evenodd" stroke="none" />
    </g>
    <g id="Groupes">
      <g id="Rectangle-2">
        <g clip-path="url(#clip_1)">
          <use xlink:href="#path_1" fill="none" stroke="#4B879A" stroke-width="60" />
        </g>
      </g>
      <g id="Rectangle-3">
        <g clip-path="url(#clip_2)">
          <use xlink:href="#path_2" fill="none" stroke="#000000" stroke-width="60" />
        </g>
      </g>
      <path d="M200.066 208.066L222.066 186.066L200.066 164.066L177.066 185.066L200.066 208.066Z" id="Vecteur" fill="#4B879A" fill-rule="evenodd" stroke="none" />
      <path d="M178.066 187.066L201.066 164.066L156.066 119.066L131.066 147.066L178.066 187.066Z" id="Vecteur-2" fill="url(#gradient_1)" fill-rule="evenodd" stroke="none" />
      <path d="M178.646 186.846C180.603 186.846 182.141 181.893 183.525 181.201C188.868 178.528 191.631 171.264 196.729 168.715C197.846 168.156 199.57 164.649 200.603 164.649" id="Vecteur-3" fill="none" fill-rule="evenodd" stroke="#ABC0BE" stroke-width="1" />
      <path d="M0 0L723 0L723 306.6L0 306.6L0 0Z" id="Rectangle" fill="none" fill-rule="evenodd" stroke="none" />
      <path d="M181.66 184.167C181.66 182.872 184.393 180.141 185.247 179.287" id="Vecteur-4" fill="none" fill-rule="evenodd" stroke="#ABC0BE" stroke-width="1" />
      <path d="M211.166 145.066C211.166 128.497 224.597 115.066 241.166 115.066C257.735 115.066 271.166 128.497 271.166 145.066C271.166 161.635 257.735 175.066 241.166 175.066C224.597 175.066 211.166 161.635 211.166 145.066Z" id="Ovale" fill="#4B879A" fill-rule="evenodd" stroke="none" />
      <path d="M129.066 143.066C129.066 126.497 142.497 113.066 159.066 113.066C175.635 113.066 189.066 126.497 189.066 143.066C189.066 159.635 175.635 173.066 159.066 173.066C142.497 173.066 129.066 159.635 129.066 143.066Z" id="Ovale-2" fill="#000000" fill-rule="evenodd" stroke="none" />
    </g>
    <path d="M192.288 266.527L188.519 266.527C188.376 264.869 187.963 263.567 187.28 262.621C186.597 261.674 185.746 261.201 184.725 261.201C183.359 261.201 182.265 262.057 181.442 263.768C180.619 265.48 180.207 267.905 180.207 271.044C180.207 274.261 180.622 276.706 181.451 278.378C182.279 280.05 183.362 280.887 184.699 280.887C185.691 280.887 186.531 280.443 187.22 279.555C187.908 278.667 188.341 277.419 188.519 275.811L192.288 275.84C192.156 277.684 191.772 279.42 191.135 281.048C190.498 282.676 189.633 283.996 188.541 285.006C187.448 286.016 186.147 286.522 184.639 286.522C183.067 286.522 181.663 285.913 180.427 284.697C179.19 283.481 178.215 281.72 177.501 279.415C176.787 277.11 176.43 274.32 176.43 271.044C176.43 267.758 176.791 264.962 177.514 262.657C178.237 260.352 179.218 258.594 180.457 257.383C181.696 256.172 183.09 255.566 184.639 255.566C185.998 255.566 187.224 255.995 188.317 256.853C189.41 257.712 190.305 258.957 191.002 260.59C191.699 262.223 192.127 264.202 192.288 266.527L192.288 266.527ZM169.951 255.978L173.676 255.978L173.676 275.546C173.676 277.743 173.372 279.665 172.764 281.313C172.156 282.961 171.304 284.243 170.209 285.161C169.113 286.078 167.834 286.536 166.371 286.536C164.908 286.536 163.629 286.078 162.534 285.161C161.438 284.243 160.586 282.961 159.978 281.313C159.37 279.665 159.066 277.743 159.066 275.546L159.066 255.978L162.792 255.978L162.792 275.001C162.792 276.718 163.119 278.135 163.773 279.253C164.427 280.371 165.293 280.931 166.371 280.931C167.455 280.931 168.323 280.371 168.974 279.253C169.625 278.135 169.951 276.718 169.951 275.001L169.951 255.978L169.951 255.978ZM199.559 255.978L194.964 255.978L194.964 286.109L198.578 286.109L198.578 266.424L198.724 266.424L203.285 285.962L205.745 285.962L210.306 266.497L210.452 266.497L210.452 286.109L214.066 286.109L214.066 255.978L209.471 255.978L204.618 276.223L204.412 276.223L199.559 255.978L199.559 255.978Z" id="UCM" fill="url(#gradient_2)" fill-rule="evenodd" stroke="none" />
  </g>
</svg>