<?xml version="1.0" encoding="utf-8"?>
<svg width="193px" height="43.896973px" viewBox="0 0 193 43.896973" version="1.1" xmlns:xlink="http://www.w3.org/1999/xlink" xmlns="http://www.w3.org/2000/svg">
  <defs>
    <linearGradient gradientUnits="userSpaceOnUse" x1="-5.3745184" y1="-14.764476" x2="200.10538" y2="58.640675" id="gradient_1">
      <stop offset="0%" stop-color="#4B879A" />
      <stop offset="100%" stop-color="#030303" />
    </linearGradient>
  </defs>
  <path d="M-408.922 -30.4641L-422.146 -30.4641C-422.649 -32.8136 -424.099 -34.6591 -426.494 -36.0007C-428.89 -37.3423 -431.879 -38.0131 -435.462 -38.0131C-440.252 -38.0131 -444.092 -36.8001 -446.981 -34.3741C-449.869 -31.9481 -451.313 -28.5108 -451.313 -24.062C-451.313 -19.5019 -449.859 -16.0368 -446.95 -13.6664C-444.042 -11.2959 -440.242 -10.1106 -435.552 -10.1106C-432.07 -10.1106 -429.121 -10.7398 -426.705 -11.9981C-424.29 -13.2563 -422.77 -15.0254 -422.146 -17.3054L-408.922 -17.2637C-409.384 -14.65 -410.733 -12.1893 -412.967 -9.88162C-415.202 -7.57375 -418.236 -5.70387 -422.071 -4.272C-425.906 -2.83977 -430.47 -2.12367 -435.764 -2.12367C-441.279 -2.12367 -446.205 -2.98579 -450.543 -4.70999C-454.881 -6.43385 -458.303 -8.92926 -460.809 -12.1962C-463.316 -15.4633 -464.569 -19.4185 -464.569 -24.062C-464.569 -28.7193 -463.3 -32.6815 -460.764 -35.9486C-458.228 -39.2157 -454.786 -41.7077 -450.438 -43.4246C-446.09 -45.1415 -441.199 -46 -435.764 -46C-430.993 -46 -426.691 -45.3918 -422.856 -44.1754C-419.021 -42.9589 -415.881 -41.1933 -413.435 -38.8785C-410.99 -36.5637 -409.485 -33.7589 -408.922 -30.4641L-408.922 -30.4641ZM-487.305 -45.416L-474.231 -45.416L-474.231 -17.6806C-474.231 -14.5665 -475.298 -11.8416 -477.431 -9.50615C-479.565 -7.17054 -482.554 -5.3527 -486.399 -4.05264C-490.244 -2.75287 -494.732 -2.103 -499.865 -2.103C-504.998 -2.103 -509.487 -2.75287 -513.332 -4.05264C-517.177 -5.3527 -520.166 -7.17054 -522.299 -9.50615C-524.433 -11.8416 -525.5 -14.5665 -525.5 -17.6806L-525.5 -45.416L-512.426 -45.416L-512.426 -18.4522C-512.426 -16.0192 -511.279 -14.0104 -508.984 -12.4255C-506.689 -10.8407 -503.65 -10.0483 -499.865 -10.0483C-496.061 -10.0483 -493.016 -10.8407 -490.732 -12.4255C-488.447 -14.0104 -487.305 -16.0192 -487.305 -18.4522L-487.305 -45.416L-487.305 -45.416ZM-383.407 -45.416L-399.531 -45.416L-399.531 -2.70786L-386.849 -2.70786L-386.849 -30.6099L-386.336 -30.6099L-370.333 -2.91634L-361.698 -2.91634L-345.695 -30.5056L-345.182 -30.5056L-345.182 -2.70786L-332.5 -2.70786L-332.5 -45.416L-348.624 -45.416L-365.653 -16.7213L-366.378 -16.7213L-383.407 -45.416L-383.407 -45.416Z" id="UCM" fill="url(#gradient_1)" fill-rule="evenodd" stroke="none" />
</svg>